# xmcd
#
# Track frame offsets: 
#        150
#        22434
#        47343
#        68075
#        82724
#        100403
#        122635
#        137014
#        153216
#        167948
#
# Disc length: 2437 seconds
#
# Revision: 0
# Processed by: cddbd v1.5.2PL0 Copyright (c) Steve Scherf et al.
# Submitted via: ExactAudioCopy v0.99pb4
#
DISCID=7b09830a
DTITLE=Diane Schuur - The Gathering
DYEAR=2011
DGENRE=Jazz
TTITLE0=Why Can't He Be You
TTITLE1=Healing Hands of Time
TTITLE2=Beneath Still Waters
TTITLE3=Til I Can Make It On My Own
TTITLE4=Don't Touch Me
TTITLE5=Today I Started Loving You Again
TTITLE6=Til I Get It Right
TTITLE7=Am I That Easy To Forget
TTITLE8=When Two Worlds Collide
TTITLE9=Nobody Wins
EXTD=
EXTT0=
EXTT1=
EXTT2=
EXTT3=
EXTT4=
EXTT5=
EXTT6=
EXTT7=
EXTT8=
EXTT9=
PLAYORDER=
